# Auto-generated regular polyhedron OBJ
v -0.02472136 0.02472136 0.02472136
v 0.00000000 0.04000000 0.01527864
v 0.00000000 0.04000000 -0.01527864
v -0.02472136 0.02472136 -0.02472136
v -0.04000000 0.01527864 0.00000000
v 0.02472136 0.02472136 0.02472136
v -0.01527864 0.00000000 0.04000000
v -0.04000000 -0.01527864 0.00000000
v -0.01527864 0.00000000 -0.04000000
v 0.02472136 0.02472136 -0.02472136
v 0.02472136 -0.02472136 0.02472136
v 0.00000000 -0.04000000 0.01527864
v 0.00000000 -0.04000000 -0.01527864
v 0.02472136 -0.02472136 -0.02472136
v 0.04000000 -0.01527864 0.00000000
v 0.01527864 0.00000000 0.04000000
v -0.02472136 -0.02472136 0.02472136
v -0.02472136 -0.02472136 -0.02472136
v 0.01527864 0.00000000 -0.04000000
v 0.04000000 0.01527864 0.00000000
f 1 2 3 4 5
f 2 6 20 10 3
f 12 17 8 18 13
f 11 12 13 14 15
f 16 7 17 12 11
f 7 16 6 2 1
f 14 13 18 9 19
f 4 3 10 19 9
f 20 15 14 19 10
f 6 16 11 15 20
f 8 5 4 9 18
f 17 7 1 5 8
